<svg width="32" height="32" viewBox="0 0 32 32" xmlns="http://www.w3.org/2000/svg">
  <defs>
    <clipPath id="circle">
      <circle cx="16" cy="16" r="15" />
    </clipPath>
  </defs>
  <circle cx="16" cy="16" r="15" fill="#E5E7EB"/>
  <g clip-path="url(#circle)">
    <!-- rote Streifen -->
    <rect x="1" y="1" width="30" height="30" fill="#B22234"/>
    <rect x="1" y="4" width="30" height="3" fill="#FFFFFF"/>
    <rect x="1" y="10" width="30" height="3" fill="#FFFFFF"/>
    <rect x="1" y="16" width="30" height="3" fill="#FFFFFF"/>
    <rect x="1" y="22" width="30" height="3" fill="#FFFFFF"/>
    <rect x="1" y="28" width="30" height="3" fill="#FFFFFF"/>

    <!-- blaues Feld -->
    <rect x="1" y="1" width="14" height="14" fill="#3C3B6E"/>

    <!-- einfache „Sternenmatrix“ (Punkte) -->
    <g fill="#FFFFFF">
      <circle cx="3.5" cy="3.5" r="0.6"/>
      <circle cx="6.5" cy="3.5" r="0.6"/>
      <circle cx="9.5" cy="3.5" r="0.6"/>
      <circle cx="12.5" cy="3.5" r="0.6"/>

      <circle cx="5" cy="6" r="0.6"/>
      <circle cx="8" cy="6" r="0.6"/>
      <circle cx="11" cy="6" r="0.6"/>

      <circle cx="3.5" cy="8.5" r="0.6"/>
      <circle cx="6.5" cy="8.5" r="0.6"/>
      <circle cx="9.5" cy="8.5" r="0.6"/>
      <circle cx="12.5" cy="8.5" r="0.6"/>

      <circle cx="5" cy="11" r="0.6"/>
      <circle cx="8" cy="11" r="0.6"/>
      <circle cx="11" cy="11" r="0.6"/>
    </g>
  </g>
  <circle cx="16" cy="16" r="15" fill="none" stroke="#F3F4F6" stroke-width="1.2"/>
</svg>
