<svg xmlns="http://www.w3.org/2000/svg" viewBox="0 0 64 64">
  <!-- Hintergrund -->
  <rect x="6" y="6" width="52" height="52" rx="12" ry="12" fill="#25D366"/>
  <!-- Sprechblase -->
  <path fill="#ffffff" d="M32 15c-8.6 0-15.6 6.7-15.6 15 0 3 0.9 5.5 2.5 7.7L17 49l11-2.9c1.2.3 2.5.4 3.9.4 8.6 0 15.6-6.7 15.6-15S40.6 15 32 15zm0 3c7 0 12.6 5.3 12.6 12s-5.6 12-12.6 12c-1.2 0-2.3-.2-3.4-.4l-.9-.2-6.5 1.7 1.8-6.1-.4-.6c-1.4-1.9-2.2-4.2-2.2-6.5 0-6.7 5.6-12 12.6-12z"/>
  <!-- Hörer -->
  <path fill="#ffffff" d="M27.8 25.5c-.3-.7-.5-.7-.8-.7h-.7c-.3 0-.7.1-1.1.5-.4.4-1.4 1.3-1.4 3.2s1.4 3.7 1.6 4 .3.6.5.8c.3.4 1.9 3.1 4.8 4.3 2.4 1 2.9.8 3.4.7.5 0 1.7-.7 1.9-1.3.2-.6.2-1.1.1-1.3-.1-.2-.2-.2-.5-.4s-1.7-.9-2-1c-.3-.1-.5-.2-.8.2-.3.4-1 1.1-1.2 1.3-.2.2-.4.2-.7.1-.3-.1-1.4-.5-2.7-1.7-1-0.9-1.7-2.1-1.9-2.4-.2-.4 0-.5.1-.7.2-.2.4-.4.5-.6.2-.2.3-.4.4-.6.1-.2 0-.5-.1-.7-.1-.2-1-2.4-1.4-3.3z"/>
</svg>
