<svg xmlns="http://www.w3.org/2000/svg" viewBox="0 0 64 64">
  <!-- Hintergrund -->
  <rect x="6" y="6" width="52" height="52" rx="12" ry="12" fill="#000000"/>
  <!-- „Schatten“ in Cyan -->
  <path
    fill="#25F4EE"
    d="M30 22v15.2a4.3 4.3 0 0 1-4.2 4.3A4.1 4.1 0 0 1 21.8 38c0-2.3 1.8-4.1 4-4.1.5 0 1 .1 1.5.3V29c-.5-.1-1-.1-1.5-.1-4.5 0-8.2 3.6-8.2 8.1 0 4.4 3.6 8 8.1 8 4.7 0 8.3-3.7 8.3-8.3V26.7c1.2 1.2 3 2.3 5.4 2.5v-4.2c-1.7-.2-3.1-1-4.1-2-1.4-1.4-1.9-3-2-3.5h-3.3z"
  />
  <!-- Hauptnote in Rosa/Weiß -->
  <path
    fill="#FE2C55"
    d="M32.3 22v14.4a4.3 4.3 0 0 1-4.2 4.3 4.1 4.1 0 0 1-3.9-3.5c.7.6 1.7.9 2.7.9 4 0 7.2-3.2 7.2-7.2V24c1.1 1.1 2.7 2.1 4.9 2.4v-2.9c-1.7-.2-3.1-1-4.1-2-1.4-1.4-1.9-3-2-3.5h-3.3z"
  />
  <path
    fill="#ffffff"
    d="M30.9 22v13.5a4.3 4.3 0 0 1-4.2 4.3A4.1 4.1 0 0 1 22.7 36c0-2.3 1.8-4.1 4-4.1.5 0 1 .1 1.5.3V26c-.5-.1-1-.1-1.5-.1-4.5 0-8.2 3.6-8.2 8.1 0 4.4 3.6 8 8.1 8 4.7 0 8.3-3.7 8.3-8.3V26.4c1.2 1.2 3 2.3 5.4 2.5v-3.3c-1.7-.2-3.1-1-4.1-2-1.4-1.4-1.9-3-2-3.5h-3.3z"
  />
</svg>
